<?xml version="1.0" standalone="no"?><svg xmlns="http://www.w3.org/2000/svg" viewBox="0 0 1440 320"><path fill="#0c1839" fill-opacity="1" d="M0,96L30,101.3C60,107,120,117,180,138.7C240,160,300,192,360,202.7C420,213,480,203,540,202.7C600,203,660,213,720,197.3C780,181,840,139,900,154.7C960,171,1020,245,1080,266.7C1140,288,1200,256,1260,234.7C1320,213,1380,203,1410,197.3L1440,192L1440,320L1410,320C1380,320,1320,320,1260,320C1200,320,1140,320,1080,320C1020,320,960,320,900,320C840,320,780,320,720,320C660,320,600,320,540,320C480,320,420,320,360,320C300,320,240,320,180,320C120,320,60,320,30,320L0,320Z"></path></svg>